<svg xmlns="http://www.w3.org/2000/svg" version="1.1" xmlns:xlink="http://www.w3.org/1999/xlink" xmlns:svgjs="http://svgjs.dev/svgjs" width="1000" height="1000" viewBox="0 0 1000 1000"><rect width="1000" height="1000" fill="#000000"></rect><g transform="matrix(0.7,0,0,0.7,149.84897959183667,150.19913061224486)"><svg viewBox="0 0 343 343" data-background-color="#77d4fc" preserveAspectRatio="xMidYMid meet" height="999" width="1000" xmlns="http://www.w3.org/2000/svg" xmlns:xlink="http://www.w3.org/1999/xlink"><g id="tight-bounds" transform="matrix(1,0,0,1,0.0740000000000407,0.07400000000001228)"><svg viewBox="0 0 342.85155851775386 342.85155851775386" height="342.85155851775386" width="342.85155851775386"><g><svg></svg></g><g><svg viewBox="0 0 342.85155851775386 342.85155851775386" height="342.85155851775386" width="342.85155851775386"><g><path d="M0 171.426c0-94.676 76.75-171.426 171.426-171.426 94.676 0 171.426 76.75 171.426 171.426 0 94.676-76.75 171.426-171.426 171.426-94.676 0-171.426-76.75-171.426-171.426zM171.426 339.916c93.054 0 168.49-75.436 168.49-168.49 0-93.054-75.436-168.49-168.49-168.49-93.054 0-168.49 75.436-168.49 168.49 0 93.054 75.436 168.49 168.49 168.49z" data-fill-palette-color="tertiary" fill="#000000" stroke="transparent"></path><ellipse rx="164.56874808852186" ry="164.56874808852186" cx="171.42577925887693" cy="171.42577925887693" fill="#000000" stroke="transparent" stroke-width="0" fill-opacity="1" data-fill-palette-color="tertiary"></ellipse></g><g transform="matrix(1,0,0,1,64.84655864529837,128.81032884336662)"><svg viewBox="0 0 213.1584412271571 85.23090083102065" height="85.23090083102065" width="213.1584412271571"><g><svg viewBox="0 0 213.1584412271571 85.23090083102065" height="85.23090083102065" width="213.1584412271571"><g><svg viewBox="0 0 213.1584412271571 85.23090083102065" height="85.23090083102065" width="213.1584412271571"><g transform="matrix(1,0,0,1,0,52.67611600773032)"><svg viewBox="0 0 213.1584412271571 32.554784823290326" height="32.554784823290326" width="213.1584412271571"><g><svg viewBox="0 0 213.1584412271571 32.554784823290326" height="32.554784823290326" width="213.1584412271571"><g><svg viewBox="0 0 213.1584412271571 32.554784823290326" height="32.554784823290326" width="213.1584412271571"><g transform="matrix(1,0,0,1,0,0)"><svg width="213.1584412271571" viewBox="2.049999952316284 -36.20000076293945 240.27999877929688 36.70000076293945" height="32.554784823290326" data-palette-color="#77d4fc"><path d="M21.35-5.4L21.35-1Q18.9 0.5 15.1 0.5L15.1 0.5Q9.15 0.5 5.6-3.25 2.05-7 2.05-12.6L2.05-12.6Q2.05-18.05 5.63-21.93 9.2-25.8 15.3-25.8L15.3-25.8Q18.6-25.8 21.35-24.4L21.35-24.4 21.35-19.9Q18.9-21.45 15.8-21.45L15.8-21.45Q11.85-21.45 9.47-18.95 7.1-16.45 7.1-12.55L7.1-12.55Q7.2-8.7 9.45-6.23 11.7-3.75 15.75-3.75L15.75-3.75Q18.75-3.75 21.35-5.4L21.35-5.4ZM46.55-22.03Q49.7-18.35 49.7-12.65 49.7-6.95 46.47-3.25 43.25 0.45 37.6 0.45L37.6 0.45Q32 0.45 28.8-3.2 25.6-6.85 25.6-12.45L25.6-12.45Q25.6-18.15 28.9-21.93 32.2-25.7 37.6-25.7L37.6-25.7Q43.4-25.7 46.55-22.03ZM30.7-12.6L30.7-12.6Q30.7-8.85 32.55-6.28 34.4-3.7 37.6-3.7L37.6-3.7Q41-3.7 42.77-6.2 44.55-8.7 44.55-12.55L44.55-12.55Q44.55-16.5 42.85-19.03 41.15-21.55 37.55-21.55L37.55-21.55Q34.3-21.55 32.5-18.98 30.7-16.4 30.7-12.6ZM60.35-35.35L60.35 0 55.4 0 55.4-35.35 60.35-35.35ZM72.59-35.35L72.59 0 67.64 0 67.64-35.35 72.59-35.35ZM84.84-25.35L84.84 0 79.89 0 79.89-25.35 84.84-25.35ZM85.44-33.1L85.44-33.1Q85.44-31.85 84.54-30.95 83.64-30.05 82.34-30.05 81.04-30.05 80.17-30.93 79.29-31.8 79.29-33.1 79.29-34.4 80.17-35.3 81.04-36.2 82.34-36.2 83.64-36.2 84.54-35.3 85.44-34.4 85.44-33.1ZM112.89-17.15L112.89 0 107.99 0 107.99-16Q107.99-18.65 106.66-20.05 105.34-21.45 103.14-21.45L103.14-21.45Q100.54-21.45 98.69-19.43 96.84-17.4 96.84-13.75L96.84-13.75 96.84 0 91.94 0 91.94-25.35 96.84-25.35 96.84-21Q99.09-25.7 104.74-25.7L104.74-25.7Q108.49-25.7 110.69-23.4 112.89-21.1 112.89-17.15L112.89-17.15ZM137.39-5.4L137.39-1Q134.94 0.5 131.14 0.5L131.14 0.5Q125.19 0.5 121.64-3.25 118.09-7 118.09-12.6L118.09-12.6Q118.09-18.05 121.66-21.93 125.24-25.8 131.34-25.8L131.34-25.8Q134.64-25.8 137.39-24.4L137.39-24.4 137.39-19.9Q134.94-21.45 131.84-21.45L131.84-21.45Q127.89-21.45 125.51-18.95 123.14-16.45 123.14-12.55L123.14-12.55Q123.24-8.7 125.49-6.23 127.74-3.75 131.79-3.75L131.79-3.75Q134.79-3.75 137.39-5.4L137.39-5.4ZM162.58-22.03Q165.73-18.35 165.73-12.65 165.73-6.95 162.51-3.25 159.28 0.45 153.63 0.45L153.63 0.45Q148.03 0.45 144.83-3.2 141.63-6.85 141.63-12.45L141.63-12.45Q141.63-18.15 144.93-21.93 148.23-25.7 153.63-25.7L153.63-25.7Q159.43-25.7 162.58-22.03ZM146.73-12.6L146.73-12.6Q146.73-8.85 148.58-6.28 150.43-3.7 153.63-3.7L153.63-3.7Q157.03-3.7 158.81-6.2 160.58-8.7 160.58-12.55L160.58-12.55Q160.58-16.5 158.88-19.03 157.18-21.55 153.58-21.55L153.58-21.55Q150.33-21.55 148.53-18.98 146.73-16.4 146.73-12.6ZM174.88-12.45L174.88-12.45Q174.88-8.65 176.76-6.3 178.63-3.95 181.48-3.95L181.48-3.95Q184.38-3.95 186.38-6.15 188.38-8.35 188.38-12.85L188.38-12.85Q188.38-17.2 186.31-19.3 184.23-21.4 181.63-21.4L181.63-21.4Q178.68-21.4 176.78-19.07 174.88-16.75 174.88-12.45ZM193.33-35.35L193.33 0 188.38 0 188.38-3.85Q185.73 0.35 180.63 0.35L180.63 0.35Q175.63 0.35 172.73-3.43 169.83-7.2 169.83-12.55L169.83-12.55Q169.83-18.5 172.88-22.1 175.93-25.7 180.73-25.7L180.73-25.7Q185.68-25.7 188.38-21.5L188.38-21.5 188.38-35.35 193.33-35.35ZM219.13-5.75L219.13-1.35Q216.33 0.25 211.73 0.25L211.73 0.25Q205.83 0.25 202.33-3.3 198.83-6.85 198.83-12.6L198.83-12.6Q198.83-18.7 202.03-22.18 205.23-25.65 210.18-25.65L210.18-25.65Q215.03-25.65 217.88-22.63 220.73-19.6 220.73-13.9L220.73-13.9Q220.73-12.35 220.43-10.65L220.43-10.65 203.78-10.65Q204.28-7.35 206.58-5.6 208.88-3.85 212.38-3.85L212.38-3.85Q216.43-3.85 219.13-5.75L219.13-5.75ZM210.28-21.6L210.28-21.6Q207.78-21.6 205.98-19.78 204.18-17.95 203.73-14.5L203.73-14.5 215.98-14.5 215.98-15.4Q215.88-18.25 214.43-19.93 212.98-21.6 210.28-21.6ZM242.33-7L242.33-7Q242.33-3.6 239.93-1.68 237.53 0.25 233.43 0.25L233.43 0.25Q228.93 0.25 225.93-1.25L225.93-1.25 225.93-5.9Q229.43-3.75 233.18-3.75L233.18-3.75Q235.13-3.75 236.2-4.55 237.28-5.35 237.28-6.65L237.28-6.65Q237.28-7.75 236.43-8.63 235.58-9.5 234.7-9.93 233.83-10.35 231.73-11.25L231.73-11.25Q225.78-13.7 225.78-18.45L225.78-18.45Q225.78-21.8 228.28-23.7 230.78-25.6 234.53-25.6L234.53-25.6Q238.63-25.6 240.93-24.5L240.93-24.5 240.93-20.05Q238.48-21.5 234.63-21.5L234.63-21.5Q232.88-21.5 231.85-20.7 230.83-19.9 230.83-18.6L230.83-18.6Q230.83-18.25 230.9-17.93 230.98-17.6 231.18-17.28 231.38-16.95 231.55-16.73 231.73-16.5 232.13-16.25 232.53-16 232.75-15.83 232.98-15.65 233.5-15.4 234.03-15.15 234.28-15.03 234.53-14.9 235.15-14.63 235.78-14.35 236.03-14.25L236.03-14.25Q238.98-12.95 240.65-11.33 242.33-9.7 242.33-7Z" opacity="1" transform="matrix(1,0,0,1,0,0)" fill="#77d4fc" class="undefined-text-0" data-fill-palette-color="quaternary" id="text-0"></path></svg></g></svg></g></svg></g></svg></g><g transform="matrix(1,0,0,1,78.46030840527645,0)"><svg viewBox="0 0 56.23782441660421 44.99071262578723" height="44.99071262578723" width="56.23782441660421"><g><svg xmlns="http://www.w3.org/2000/svg" xmlns:xlink="http://www.w3.org/1999/xlink" version="1.1" x="0" y="0" viewBox="0 10 99.99899291992188 80" enable-background="new 0 0 100 100" xml:space="preserve" height="44.99071262578723" width="56.23782441660421" class="icon-icon-0" data-fill-palette-color="quaternary" id="icon-0"><path fill="#77d4fc" d="M97.327 10H2.673C1.197 10 0 11.197 0 12.673V25v62.327C0 88.803 1.197 90 2.673 90h94.653c1.476 0 2.673-1.197 2.673-2.673V25 12.673C100 11.197 98.803 10 97.327 10zM95 85H5V30h90V85zM5 25V15h90v10H5z" data-fill-palette-color="quaternary"></path><circle fill="#77d4fc" cx="10" cy="20" r="2.0" data-fill-palette-color="quaternary"></circle><circle fill="#77d4fc" cx="17.5" cy="20" r="2.0" data-fill-palette-color="quaternary"></circle><circle fill="#77d4fc" cx="25" cy="20" r="2.0" data-fill-palette-color="quaternary"></circle><path fill="#77d4fc" d="M32.116 73.384c-0.764 0.764-2.004 0.764-2.768 0L15.61 59.645c-0.909-0.909-0.909-2.382 0-3.29l13.739-13.739c0.764-0.764 2.004-0.764 2.768 0l0.643 0.643c0.833 0.833 0.833 2.184 0 3.018L21.143 57.893c-0.059 0.059-0.059 0.155 0 0.214l11.741 11.741c0.764 0.764 0.764 2.004 0 2.768L32.116 73.384z" data-fill-palette-color="quaternary"></path><path fill="#77d4fc" d="M68.019 73.384c0.764 0.764 2.004 0.764 2.768 0l13.739-13.739c0.909-0.909 0.909-2.382 0-3.29L70.787 42.616c-0.764-0.764-2.004-0.764-2.768 0l-0.643 0.643c-0.833 0.833-0.833 2.184 0 3.018l11.616 11.616c0.059 0.059 0.059 0.155 0 0.214L67.251 69.848c-0.764 0.764-0.764 2.004 0 2.768L68.019 73.384z" data-fill-palette-color="quaternary"></path><path fill="#77d4fc" d="M61.388 41.954c-0.137-0.501-0.467-0.927-0.917-1.184l-0.943-0.539c-0.938-0.536-2.134-0.21-2.67 0.728L38.8 72.56c-0.258 0.451-0.325 0.985-0.189 1.486 0.137 0.501 0.467 0.927 0.917 1.184l0.943 0.539c0.938 0.536 2.134 0.21 2.67-0.728L61.2 43.44C61.457 42.989 61.525 42.454 61.388 41.954z" data-fill-palette-color="quaternary"></path></svg></g></svg></g><g></g></svg></g></svg></g></svg></g></svg></g><defs></defs></svg><rect width="342.85155851775386" height="342.85155851775386" fill="none" stroke="none" visibility="hidden"></rect></g></svg></g></svg>