<svg xmlns="http://www.w3.org/2000/svg" version="1.1" xmlns:xlink="http://www.w3.org/1999/xlink" xmlns:svgjs="http://svgjs.dev/svgjs" width="1000" height="1000" viewBox="0 0 1000 1000"><rect width="1000" height="1000" fill="#000000"></rect><g transform="matrix(0.7,0,0,0.7,150.00077059784894,106.25)"><svg viewBox="0 0 320 360" data-background-color="#282634" preserveAspectRatio="xMidYMid meet" height="1125" width="1000" xmlns="http://www.w3.org/2000/svg" xmlns:xlink="http://www.w3.org/1999/xlink"><g id="tight-bounds" transform="matrix(1,0,0,1,0.00010353528136874957,0)"><svg viewBox="0 0 320 360" height="360" width="320"><g><svg></svg></g><g><svg viewBox="0 0 320 360" height="360" width="320"><g><path xmlns="http://www.w3.org/2000/svg" d="M307.925 179.999l6.575-11.387c11.322-19.607 4.604-44.679-15.003-56.001l-11.387-6.575v-13.151c0-22.639-18.354-40.994-40.994-40.994h-13.151l-6.575-11.387c-11.322-19.607-36.393-26.325-56.001-15.003l-11.39 6.572-11.387-6.576c-19.607-11.318-44.679-4.6-56.001 15.007l-6.575 11.387h-13.151c-22.639 0-40.994 18.354-40.994 40.994v13.151l-11.387 6.575c-19.607 11.322-26.325 36.393-15.003 56.001l6.572 11.387-6.576 11.387c-11.318 19.607-4.6 44.679 15.007 56l11.387 6.576v13.15c0 22.639 18.354 40.994 40.994 40.994h13.151l6.575 11.387c11.322 19.607 36.393 26.325 56.001 15.003l11.387-6.571 11.387 6.575c19.607 11.322 44.679 4.604 56-15.003l6.576-11.387h13.15c22.639 0 40.994-18.354 40.994-40.994v-13.151l11.387-6.575c19.607-11.322 26.325-36.393 15.003-56.001zM297.702 115.716c8.655 4.996 14.842 13.062 17.428 22.713 2.586 9.65 1.261 19.734-3.735 28.384l-5.538 9.596-17.747-30.74v-35.494zM251.155 271.155l-57.791 33.365h-66.731l-57.791-33.365-33.365-57.791v-66.731l33.365-57.791 57.791-33.365h66.731l57.791 33.365 33.365 57.791v66.731zM284.517 220.539v31.351l-27.151 15.676zM247.566 277.366l-15.676 27.151h-31.351zM187.15 308.106l-27.151 15.676-27.151-15.676zM119.459 304.517h-31.352l-15.676-27.151zM62.632 267.566l-27.151-15.676v-31.351zM31.891 207.15l-15.675-27.151 15.675-27.151zM35.481 139.459v-31.352l27.151-15.676zM72.431 82.632l15.676-27.151h31.352zM132.848 51.891l27.151-15.675 27.151 15.675zM200.539 55.481h31.351l15.676 27.151zM257.366 92.431l27.151 15.676v31.352zM288.106 152.848l15.676 27.151-15.676 27.151zM247.112 55.481c9.992 0 19.384 3.889 26.452 10.956 7.063 7.063 10.956 16.46 10.957 26.452v11.079l-30.741-17.747-17.747-30.74zM173.18 28.606c8.655-4.996 18.735-6.322 28.385-3.735 9.65 2.586 17.716 8.777 22.712 17.428l5.538 9.596h-35.494l-30.741-17.747zM95.716 42.295c4.996-8.655 13.062-14.842 22.713-17.428 9.65-2.586 19.734-1.261 28.384 3.736l9.596 5.537-30.74 17.747h-35.494zM35.481 92.885c0-9.992 3.889-19.384 10.956-26.452 7.063-7.063 16.46-10.956 26.452-10.956h11.079l-17.747 30.74-30.74 17.747zM8.606 166.817c-4.996-8.655-6.322-18.735-3.735-28.385 2.586-9.65 8.777-17.716 17.428-22.712l9.596-5.538v35.495l-17.747 30.74zM22.295 244.281c-8.655-4.996-14.842-13.062-17.428-22.712-2.586-9.65-1.261-19.734 3.736-28.385l5.537-9.596 17.747 30.74v35.495zM72.885 304.517c-9.992 0-19.384-3.889-26.452-10.957-7.063-7.063-10.956-16.46-10.956-26.451v-11.08l30.74 17.747 17.747 30.741zM146.817 331.391c-8.655 4.996-18.735 6.322-28.385 3.735-9.65-2.586-17.716-8.777-22.712-17.428l-5.538-9.596h35.495l30.74 17.747zM224.281 317.702c-4.996 8.655-13.062 14.842-22.712 17.428-9.65 2.586-19.734 1.261-28.385-3.735l-9.596-5.538 30.74-17.747h35.495zM284.517 267.112c0 9.992-3.889 19.384-10.957 26.452-7.063 7.063-16.46 10.956-26.451 10.957h-11.08l17.747-30.741 30.741-17.747zM315.13 221.565c-2.586 9.65-8.777 17.716-17.428 22.712l-9.596 5.538v-35.494l17.747-30.741 5.538 9.596c4.996 8.658 6.326 18.739 3.739 28.389z" fill="#ff4057" fill-rule="nonzero" stroke="none" stroke-width="1" stroke-linecap="butt" stroke-linejoin="miter" stroke-miterlimit="10" stroke-dasharray="" stroke-dashoffset="0" font-family="none" font-weight="none" font-size="none" text-anchor="none" style="mix-blend-mode: normal" data-fill-palette-color="tertiary"></path></g><g transform="matrix(1,0,0,1,64,148.57805712664066)"><svg viewBox="0 0 192 62.84388574671869" height="62.84388574671869" width="192"><g><svg viewBox="0 0 192 62.84388574671869" height="62.84388574671869" width="192"><g><svg viewBox="0 0 192 62.84388574671869" height="62.84388574671869" width="192"><g transform="matrix(1,0,0,1,0,37.984006356864136)"><svg viewBox="0 0 192 24.859879389854555" height="24.859879389854555" width="192"><g><svg viewBox="0 0 192 24.859879389854555" height="24.859879389854555" width="192"><g><svg viewBox="0 0 192 24.859879389854555" height="24.859879389854555" width="192"><g transform="matrix(1,0,0,1,0,0)"><svg width="192" viewBox="2.4000000953674316 -36 281.8800048828125 36.5" height="24.859879389854555" data-palette-color="#ff4057"><path d="M10.5-13.6Q10.5-9.8 12.55-7.73 14.6-5.65 17.75-5.65L17.75-5.65Q21.3-5.65 23-7.58 24.7-9.5 24.7-13.5L24.7-13.5 31.75-13.5Q31.75-9.1 29.98-5.93 28.2-2.75 25.1-1.13 22 0.5 18.1 0.5L18.1 0.5 17.4 0.5Q13.1 0.5 9.7-1.25 6.3-3 4.35-6.43 2.4-9.85 2.4-14.7L2.4-14.7 2.4-19.6Q2.4-24.3 4.35-27.75 6.3-31.2 9.68-33 13.05-34.8 17.2-34.8L17.2-34.8 17.9-34.8Q21.9-34.8 25.03-33.23 28.15-31.65 29.95-28.48 31.75-25.3 31.75-20.7L31.75-20.7 24.4-20.7Q24.4-24.6 22.68-26.63 20.95-28.65 17.7-28.65L17.7-28.65Q14.55-28.65 12.53-26.58 10.5-24.5 10.5-20.7L10.5-20.7 10.5-13.6ZM62.1-12.05Q62.1-8.2 60.47-5.35 58.85-2.5 56-1 53.15 0.5 49.6 0.5L49.6 0.5 48.8 0.5Q45.25 0.5 42.4-1 39.55-2.5 37.92-5.35 36.3-8.2 36.3-12.05L36.3-12.05 36.3-13.5Q36.3-17.35 37.92-20.2 39.55-23.05 42.4-24.55 45.25-26.05 48.8-26.05L48.8-26.05 49.6-26.05Q53.15-26.05 56-24.55 58.85-23.05 60.47-20.2 62.1-17.35 62.1-13.5L62.1-13.5 62.1-12.05ZM54.7-14.8Q54.7-17.85 53.17-19.45 51.65-21.05 49.2-21.05L49.2-21.05Q46.75-21.05 45.22-19.45 43.7-17.85 43.7-14.8L43.7-14.8 43.7-10.75Q43.7-7.7 45.22-6.1 46.75-4.5 49.2-4.5L49.2-4.5Q51.65-4.5 53.17-6.1 54.7-7.7 54.7-10.75L54.7-10.75 54.7-14.8ZM74.84 0L67.55 0 67.55-36 74.84-36 74.84 0ZM88.79 0L81.49 0 81.49-36 88.79-36 88.79 0ZM95.39-30.25L95.39-36 102.79-36 102.79-30.25 95.39-30.25ZM102.74 0L95.44 0 95.44-25.55 102.74-25.55 102.74 0ZM114.79-25.55L115.59-21.8Q118.74-26.05 123.74-26.05L123.74-26.05Q127.64-26.05 130.16-23.95 132.69-21.85 132.69-17.85L132.69-17.85 132.69 0 125.39 0 125.39-16.25Q125.39-18.2 124.26-19.48 123.14-20.75 121.39-20.75L121.39-20.75Q119.44-20.75 118.04-19.28 116.64-17.8 116.64-15.7L116.64-15.7 116.64 0 109.34 0 109.34-25.55 114.79-25.55ZM146.39-13.6Q146.39-9.8 148.44-7.73 150.49-5.65 153.64-5.65L153.64-5.65Q157.19-5.65 158.89-7.58 160.59-9.5 160.59-13.5L160.59-13.5 167.64-13.5Q167.64-9.1 165.86-5.93 164.09-2.75 160.99-1.13 157.89 0.5 153.99 0.5L153.99 0.5 153.29 0.5Q148.99 0.5 145.59-1.25 142.19-3 140.24-6.43 138.29-9.85 138.29-14.7L138.29-14.7 138.29-19.6Q138.29-24.3 140.24-27.75 142.19-31.2 145.56-33 148.94-34.8 153.09-34.8L153.09-34.8 153.79-34.8Q157.79-34.8 160.91-33.23 164.04-31.65 165.84-28.48 167.64-25.3 167.64-20.7L167.64-20.7 160.29-20.7Q160.29-24.6 158.56-26.63 156.84-28.65 153.59-28.65L153.59-28.65Q150.44-28.65 148.41-26.58 146.39-24.5 146.39-20.7L146.39-20.7 146.39-13.6ZM197.98-12.05Q197.98-8.2 196.36-5.35 194.73-2.5 191.88-1 189.03 0.5 185.48 0.5L185.48 0.5 184.68 0.5Q181.13 0.5 178.28-1 175.43-2.5 173.81-5.35 172.18-8.2 172.18-12.05L172.18-12.05 172.18-13.5Q172.18-17.35 173.81-20.2 175.43-23.05 178.28-24.55 181.13-26.05 184.68-26.05L184.68-26.05 185.48-26.05Q189.03-26.05 191.88-24.55 194.73-23.05 196.36-20.2 197.98-17.35 197.98-13.5L197.98-13.5 197.98-12.05ZM190.58-14.8Q190.58-17.85 189.06-19.45 187.53-21.05 185.08-21.05L185.08-21.05Q182.63-21.05 181.11-19.45 179.58-17.85 179.58-14.8L179.58-14.8 179.58-10.75Q179.58-7.7 181.11-6.1 182.63-4.5 185.08-4.5L185.08-4.5Q187.53-4.5 189.06-6.1 190.58-7.7 190.58-10.75L190.58-10.75 190.58-14.8ZM220.83 0L220.08-3.2Q217.28 0.5 212.88 0.5L212.88 0.5Q209.88 0.5 207.48-0.95 205.08-2.4 203.68-5.35 202.28-8.3 202.28-12.65L202.28-12.65 202.28-13.2Q202.28-17.35 203.58-20.25 204.88-23.15 207.11-24.6 209.33-26.05 212.13-26.05L212.13-26.05Q214.53-26.05 216.36-25.05 218.18-24.05 219.28-22.6L219.28-22.6 219.28-36 226.58-36 226.58 0 220.83 0ZM209.68-10.55Q209.68-7.65 211.03-6.08 212.38-4.5 214.48-4.5L214.48-4.5Q216.58-4.5 217.93-6.08 219.28-7.65 219.28-10.55L219.28-10.55 219.28-14.7Q219.28-17.65 217.93-19.2 216.58-20.75 214.48-20.75L214.48-20.75Q212.38-20.75 211.03-19.2 209.68-17.65 209.68-14.7L209.68-14.7 209.68-10.55ZM256.88-9.55Q256.88-6.2 255.28-3.93 253.68-1.65 251.05-0.58 248.43 0.5 245.33 0.5L245.33 0.5 244.53 0.5Q240.98 0.5 238.13-1 235.28-2.5 233.65-5.33 232.03-8.15 232.03-12.05L232.03-12.05 232.03-13.5Q232.03-17.35 233.68-20.2 235.33-23.05 238.15-24.55 240.98-26.05 244.53-26.05L244.53-26.05 245.33-26.05Q248.43-26.05 251.08-24.78 253.73-23.5 255.33-21.08 256.93-18.65 256.93-15.35L256.93-15.35 256.93-11.55 239.43-11.55 239.43-10.35Q239.43-7.85 240.9-6.18 242.38-4.5 244.93-4.5L244.93-4.5Q247.23-4.5 248.55-5.78 249.88-7.05 249.88-9.55L249.88-9.55 256.88-9.55ZM244.58-21.05Q242.38-21.05 241-19.5 239.63-17.95 239.43-15.55L239.43-15.55 249.53-15.55Q249.53-18.1 248.35-19.58 247.18-21.05 244.58-21.05L244.58-21.05ZM266.98-8.15L266.98-7.8Q266.98-6.05 268.53-5.28 270.08-4.5 272.38-4.5L272.38-4.5Q274.38-4.5 275.95-5.1 277.53-5.7 277.53-7L277.53-7Q277.53-8.4 276.08-9 274.63-9.6 271.58-10.05L271.58-10.05Q268.38-10.6 266.33-11.25 264.28-11.9 262.8-13.5 261.33-15.1 261.33-17.95L261.33-17.95Q261.33-20.55 262.85-22.38 264.38-24.2 266.9-25.13 269.43-26.05 272.43-26.05L272.43-26.05 273.43-26.05Q276.08-26.05 278.45-25.18 280.83-24.3 282.28-22.73 283.73-21.15 283.73-19.15L283.73-19.15Q283.73-18.75 283.68-18.43 283.63-18.1 283.63-18.05L283.63-18.05 277.23-18.05Q277.23-21.05 272.63-21.05L272.63-21.05Q270.53-21.05 269.25-20.45 267.98-19.85 267.98-18.8L267.98-18.8Q267.98-17.55 269.35-17.05 270.73-16.55 273.68-16.1L273.68-16.1Q277.03-15.55 279.1-14.93 281.18-14.3 282.73-12.68 284.28-11.05 284.28-8.1L284.28-8.1Q284.28-3.55 281.08-1.53 277.88 0.5 272.93 0.5L272.93 0.5 271.28 0.5Q268.18 0.5 265.73-0.45 263.28-1.4 261.9-3.15 260.53-4.9 260.53-7.15L260.53-7.15 260.58-8.15 266.98-8.15Z" opacity="1" transform="matrix(1,0,0,1,0,0)" fill="#ffffff" class="undefined-text-0" data-fill-palette-color="primary" id="text-0"></path></svg></g></svg></g></svg></g></svg></g><g transform="matrix(1,0,0,1,75.69842570220656,0)"><svg viewBox="0 0 40.60314859558687 34.356353316779" height="34.356353316779" width="40.60314859558687"><g><svg xmlns="http://www.w3.org/2000/svg" xmlns:xlink="http://www.w3.org/1999/xlink" version="1.1" x="0" y="0" viewBox="0 13.42199993133545 100 84.61499786376953" enable-background="new 0 0 100 100" xml:space="preserve" height="34.356353316779" width="40.60314859558687" class="icon-icon-0" data-fill-palette-color="accent" id="icon-0"><g fill="#dcdcdc" data-fill-palette-color="accent"><path d="M0 13.422v84.615h100V13.422H0zM92.308 90.346H7.692V28.807h84.615V90.346z" fill="#ffffff" data-fill-palette-color="accent"></path><rect x="42.002" y="66.065" width="26.488" height="7.775" fill="#ffffff" data-fill-palette-color="accent"></rect><polygon points="15.521,66.064 41.988,55.549 41.988,55.527 42.002,55.533 42.002,47.181 41.988,47.187 41.988,47.165    15.521,36.65 15.515,45.014 31.487,51.357 15.515,57.701  " fill="#ffffff" data-fill-palette-color="accent"></polygon></g></svg></g></svg></g><g></g></svg></g></svg></g></svg></g></svg></g><defs></defs></svg><rect width="320" height="360" fill="none" stroke="none" visibility="hidden"></rect></g></svg></g></svg>